<?xml version="1.0" encoding="UTF-8" standalone="no"?>
<!-- Created with Inkscape (http://www.inkscape.org/) -->

<svg
   id="svg2"
   version="1.1"
   inkscape:version="1.4.4 (dcaf3e7d, 2026-05-05)"
   width="2481"
   height="3503"
   sodipodi:docname="E04P07.svg"
   xmlns:inkscape="http://www.inkscape.org/namespaces/inkscape"
   xmlns:sodipodi="http://sodipodi.sourceforge.net/DTD/sodipodi-0.dtd"
   xmlns:xlink="http://www.w3.org/1999/xlink"
   xmlns="http://www.w3.org/2000/svg"
   xmlns:svg="http://www.w3.org/2000/svg"
   xmlns:rdf="http://www.w3.org/1999/02/22-rdf-syntax-ns#"
   xmlns:cc="http://creativecommons.org/ns#"
   xmlns:dc="http://purl.org/dc/elements/1.1/">
  <sodipodi:namedview
     pagecolor="#ffffff"
     bordercolor="#666666"
     inkscape:pageopacity="0"
     inkscape:pageshadow="2"
     inkscape:window-width="1792"
     inkscape:window-height="955"
     id="namedview70"
     showgrid="false"
     inkscape:zoom="0.4"
     inkscape:cx="1176.25"
     inkscape:cy="2782.5"
     inkscape:current-layer="layer1"
     inkscape:window-x="0"
     inkscape:window-y="178"
     inkscape:window-maximized="0"
     borderopacity="0.25"
     inkscape:showpageshadow="2"
     inkscape:pagecheckerboard="0"
     inkscape:deskcolor="#d1d1d1" />
  <metadata
     id="metadata8">
    <rdf:RDF>
      <cc:Work
         rdf:about="">
        <dc:format>image/svg+xml</dc:format>
        <dc:type
           rdf:resource="http://purl.org/dc/dcmitype/StillImage" />
        <dc:title />
      </cc:Work>
    </rdf:RDF>
  </metadata>
  <defs
     id="defs6" />
  <sodipodi:namedview
     pagecolor="#ffffff"
     bordercolor="#666666"
     borderopacity="1"
     objecttolerance="10"
     gridtolerance="10"
     guidetolerance="10"
     inkscape:pageopacity="0"
     inkscape:pageshadow="2"
     inkscape:window-width="1920"
     inkscape:window-height="1025"
     id="namedview4"
     showgrid="false"
     inkscape:zoom="0.27255257"
     inkscape:cx="1528.4552"
     inkscape:cy="2135.3742"
     inkscape:window-x="0"
     inkscape:window-y="26"
     inkscape:window-maximized="1"
     inkscape:current-layer="layer1" />
  <g
     inkscape:groupmode="layer"
     id="layer2"
     inkscape:label="artwork"
     sodipodi:insensitive="true">
    <image
       xlink:href="../gfx_Pepper-and-Carrot_by-David-Revoy_E04P07.jpg"
       y="0"
       x="0"
       id="image10"
       height="3503"
       width="2481" />
  </g>
  <g
     inkscape:groupmode="layer"
     id="layer3"
     inkscape:label="speechbubbles">
    <path
       style="fill:#ffffff;stroke:none;display:inline"
       d="m 146.74525,78.026509 28.11467,35.370071 -16.32465,17.23158 8.16233,9.97617 -12.69695,9.97617 25.39389,7.2554 c -16.38445,22.15355 -38.44418,40.90193 -61.67089,58.95012 l 34.46315,-5.44155 c -1.68965,12.728 -9.29952,23.97594 -16.32465,35.37007 l 36.277,-15.41772 c 0.94796,8.60197 -6.16576,13.97926 -11.79003,19.95234 l 26.30082,-5.44155 -3.6277,7.2554 c 10.63196,-2.46964 20.73686,-4.41221 32.6493,-8.16232 l -15.41772,24.48697 31.74237,-15.41772 8.16232,9.97617 8.16233,-10.8831 9.06924,37.18392 17.23158,-38.99777 11.39957,22.93343 9.4597,-21.11958 c 11.68463,10.44356 17.56538,22.25534 21.7662,34.46315 9.24593,-14.5108 18.45147,-29.0216 31.74237,-43.5324 5.69469,4.31914 13.73874,14.12012 23.58004,28.11468 l 6.34848,-19.04543 c 17.14027,12.72738 31.93159,26.23775 40.81162,41.71855 l 0,-38.99777 22.67312,19.95234 7.2554,-30.83544 19.95234,21.7662 1.81385,-25.3939 26.30083,18.1385 -0.90693,-15.41773 26.30082,11.79003 c 0,0 -6.55681,-24.91228 -2.20017,-29.79838 4.35664,-4.88609 35.75639,7.12526 35.75639,7.12526 0,0 -10.3599,-18.22537 -7.2554,-21.7662 3.1045,-3.54083 34.46315,0.90692 34.46315,0.90692 l -26.30082,-29.92852 c 19.49915,-9.82475 39.02694,-19.62086 62.57781,-25.39389 0,0 -29.37154,-19.1463 -30.18676,-23.70813 -0.81521,-4.56184 13.86212,-9.84809 13.86212,-9.84809 l -28.11262,-13.34358 31.74031,-16.584944 -54.41549,1.81385 24.48697,-31.742375 -40.81162,27.207745 17.23158,-58.950116 c -19.79493,25.249004 -46.35945,43.728419 -74.36784,60.763966 l 9.97617,-20.859271 -36.27699,24.486971 -3.6277,-48.067018 -14.5108,37.18392 C 422.45207,65.2859 415.49801,43.649541 412.47424,20.890242 409.9402,41.447206 400.66406,62.004169 387.08034,82.561133 L 377.10417,37.21489 355.33797,72.58496 343.54795,45.377213 323.5956,78.933434 301.8294,27.238716 l -4.53462,48.973943 -12.69695,-19.952347 -7.2554,23.580047 -19.95235,-33.556221 4.53463,37.18392 C 241.56563,65.829751 227.81903,54.803925 211.13692,40.842589 l 18.13849,48.067017 -28.11467,-22.67312 10.8831,33.55622 -23.58005,-12.69695 3.6277,20.859274 z"
       id="path3497"
       inkscape:connector-curvature="0"
       sodipodi:nodetypes="ccccccccccccccccccccccccccccccccccczczccczccccccccccccccccccccccccccccccc" />
    <path
       style="fill:#ffffff;stroke:none;stroke-width:1px;stroke-linecap:butt;stroke-linejoin:miter;stroke-opacity:1;color:#000000;fill-opacity:1;fill-rule:nonzero;marker:none;visibility:visible;display:inline;overflow:visible;enable-background:accumulate"
       d="m 208.59272,300.64828 c -0.90692,-40.81162 28.11467,-66.20552 34.46315,-68.92629 6.34847,-2.72078 215.84812,-15.41773 239.42816,1.81385 23.58005,17.23157 29.0216,29.02159 26.30082,44.43931 -2.72077,15.41773 -17.23157,56.22935 -50.78779,68.01937 -33.55622,11.79002 -111.55176,17.23157 -152.36338,8.16232 -40.81162,-9.06924 -100.66866,-18.13849 -97.04096,-53.50856 z"
       id="path3517"
       inkscape:connector-curvature="0" />
    <path
       style="fill:#ffffff;stroke:none;stroke-width:1px;stroke-linecap:butt;stroke-linejoin:miter;stroke-opacity:1;color:#000000;fill-opacity:1;fill-rule:nonzero;marker:none;visibility:visible;display:inline;overflow:visible;enable-background:accumulate"
       d="m 409.93004,381.36459 c -5.44155,-29.0216 9.06925,-106.11021 120.62101,-99.76174 111.55176,6.34848 129.69026,42.62547 132.41103,53.50857 2.72078,10.8831 26.30082,72.55399 -60.76396,88.87864 -87.06479,16.32465 -165.06033,-0.90693 -192.26808,-42.62547 z"
       id="path3525"
       inkscape:connector-curvature="0" />
    <path
       style="fill:#ffffff;stroke:none;stroke-width:1px;stroke-linecap:butt;stroke-linejoin:miter;stroke-opacity:1;color:#000000;fill-opacity:1;fill-rule:nonzero;marker:none;visibility:visible;display:inline;overflow:visible;enable-background:accumulate"
       d="m 746.39917,361.41224 c 26.30082,-39.90469 81.62324,-73.46091 154.17723,-87.06478 72.55399,-13.60388 206.7789,-9.97618 230.3589,-5.44155 23.5801,4.53462 153.2703,20.85927 181.385,43.53239 28.1147,22.67312 66.2055,50.78779 74.3678,79.80939 8.1624,29.02159 0.907,98.85481 -25.3939,114.27253 -26.3008,15.41773 -146.0149,48.97395 -215.8481,50.7878 -69.8332,1.81385 -232.17275,-12.69695 -278.42592,-22.67313 -46.25317,-9.97617 -95.22711,-22.67312 -109.73791,-54.41549 -14.5108,-31.74237 -41.71855,-73.46091 -10.8831,-118.80716 z"
       id="path3533"
       inkscape:connector-curvature="0" />
    <path
       style="fill:#ffffff;stroke:none;stroke-width:1px;stroke-linecap:butt;stroke-linejoin:miter;stroke-opacity:1;color:#000000;fill-opacity:1;fill-rule:nonzero;marker:none;visibility:visible;display:inline;overflow:visible;enable-background:accumulate"
       d="M 950.45727,823.94393 C 1121.8661,759.55226 1165.3985,589.05039 1147.26,494.7302 c -18.1385,-94.32019 -40.8117,-38.99777 -40.8117,-38.99777 l -4.5346,33.55622 c 0,0 70.7402,243.05587 -151.45643,334.65528 z"
       id="path3541"
       inkscape:connector-curvature="0" />
    <path
       style="fill:#ffffff;stroke:none;stroke-width:1px;stroke-linecap:butt;stroke-linejoin:miter;stroke-opacity:1;color:#000000;fill-opacity:1;fill-rule:nonzero;marker:none;visibility:visible;display:inline;overflow:visible;enable-background:accumulate"
       d="m 1772.1312,1416.1659 c 41.3111,14.9733 83.4399,29.7809 9.9762,68.0193 69.7589,-9.8619 27.08,11.2936 9.9761,25.3939 124.591,-27.8993 44.1779,17.1356 13.6039,44.4393 27.7606,-10.8815 72.0018,-41.5396 55.3224,0.907 8.8262,-1.952 19.2115,-7.5421 23.5801,0.9069 11.2458,-5.8344 19.6007,-7.3326 24.487,-3.6277 11.0527,-10.6176 18.1944,-13.4132 18.1385,-1.8138 10.4494,-8.747 13.6675,-5.7365 16.3246,-1.8139 17.9337,-18.7794 24.6315,-13.4817 31.7424,-9.0692 10.1538,-11.2754 22.0363,-8.7216 35.37,5.4415 13.6427,-19.1765 28.3025,-18.0098 43.5324,-5.4415 4.4732,-4.7241 8.5356,-12.7337 14.5108,-5.4416 6.0462,-2.5224 12.0923,-8.9861 18.1385,-2.7208 63.8142,-24.8239 91.6486,-3.8551 121.528,14.5108 16.6601,-8.1084 28.6656,-23.7806 57.1362,-12.6969 2.6614,-11.3179 17.927,-15.9134 44.4393,-14.5108 -27.1931,-13.6589 -28.5921,-21.4349 34.4632,-14.5108 -43.9498,-11.1854 -84.4517,-22.3708 -16.3247,-33.5562 -15.9561,-4.4407 -68.1098,6.0056 -10.8831,-47.1601 -40.6366,11.7341 -77.5269,14.7828 -88.8786,-32.6493 -21.9228,12.4739 -46.196,18.6532 -65.2986,-9.9762 -17.399,13.4143 -41.7433,10.1938 -54.4155,3.6277 -3.4286,14.6914 -29.3201,37.2228 -64.3916,-3.6277 7.6949,23.2186 1.8706,60.2009 -38.9978,-0.9069 -0.8105,10.63 16.0189,68.4385 -97.9479,-0.907 14.2165,46.5252 -23.6232,19.4535 -53.5086,3.6277 14.8199,29.1701 -7.4834,31.4259 -56.2293,14.5108 37.6041,27.6974 -1.0616,20.0503 -25.3939,19.0455 z"
       id="path3549"
       inkscape:connector-curvature="0"
       sodipodi:nodetypes="ccccccccccccccccccccccccccccc" />
    <path
       style="color:#000000;display:inline;overflow:visible;visibility:visible;fill:#ffffff;fill-opacity:1;fill-rule:nonzero;stroke:none;stroke-width:1.02016px;marker:none;enable-background:accumulate"
       d="m 1628.3794,2038.9036 c 24.7142,2.3728 15.7707,-15.3286 1.0984,-36.4465 5.7357,0.9126 18.3698,24.2663 12.0821,-13.9355 13.2272,3.9494 24.0395,2.3017 19.7707,-34.3026 10.7901,-1.1294 38.9923,18.9828 17.5739,-21.4392 23.1945,13.6616 38.3489,13.1986 50.5252,7.5038 41.3775,28.5917 42.2602,12.0165 54.9186,8.5757 13.7245,8.0643 29.0829,8.1564 47.2298,-5.3598 4.163,10.7726 19.9715,8.5559 39.5415,2.1439 14.397,25.3753 55.4588,11.7154 85.673,13.9354 38.0984,24.9668 97.3035,5.3023 147.1819,5.3598 40.8427,-4.0899 92.4604,2.3364 115.329,-19.2952 -5.1773,19.2227 10.9906,9.2806 27.4594,-1.072 3.2312,3.7535 -17.7689,21.6962 36.2461,-4.2878 -1.4583,8.8845 -7.3762,20.4894 25.2626,8.5757 3.7075,5.4962 -22.7294,27.1259 43.9349,-1.072 0.3558,7.7695 -12.2718,23.0265 34.0495,4.2878 -37.5768,46.1618 -16.7502,41.2212 8.7869,32.1587 -13.8906,21.3309 -48.3949,48.4098 -4.3935,53.5979 -39.567,6.2909 -29.4788,21.8124 -24.164,36.4465 -49.5906,-29.4686 -55.4173,-7.0735 -76.8861,-3.2159 -22.6647,-4.9023 -43.5445,-22.8673 -70.2958,2.144 -40.9815,-10.2926 -49.1066,-0.8521 -62.6072,5.3598 -71.598,-19.7519 -69.9068,-3.7407 -102.1487,-4.2879 -19.0627,-24.433 -62.0804,-6.0043 -93.3615,-8.5756 -39.5415,-20.0352 -88.2187,-7.5561 -118.6243,2.1439 -12.4303,-8.2795 -21.2513,-20.8639 -52.7218,-6.4317 -20.5169,-15.8736 -42.0723,-16.5456 -64.8039,0 -5.9515,-9.9754 -22.453,-11.5851 -63.7055,6.4317 18.6026,-16.5226 -5.9286,-23.0222 -32.9512,-28.9429 z"
       id="path3557"
       inkscape:connector-curvature="0"
       sodipodi:nodetypes="cccccccccccccccccccccccccccccc" />
    <path
       style="fill:#ffffff;stroke:none;stroke-width:1px;stroke-linecap:butt;stroke-linejoin:miter;stroke-opacity:1;color:#000000;fill-opacity:1;fill-rule:nonzero;marker:none;visibility:visible;display:inline;overflow:visible;enable-background:accumulate"
       d="m 40.779877,2160.8623 c -1.199408,-34.7828 47.976326,-69.5657 129.536083,-71.9645 81.55975,-2.3988 151.12542,25.1876 158.32187,61.1698 7.19645,35.9823 -71.96449,70.7651 -142.72957,71.9645 -70.76508,1.1994 -137.931934,-8.3959 -145.128383,-61.1698 z"
       id="path3565"
       inkscape:connector-curvature="0" />
    <path
       style="fill:#ffffff;stroke:none;stroke-width:1px;stroke-linecap:butt;stroke-linejoin:miter;stroke-opacity:1;color:#000000;fill-opacity:1;fill-rule:nonzero;marker:none;visibility:visible;display:inline;overflow:visible;enable-background:accumulate"
       d="m 247.07808,2310.7883 c 13.19349,-74.3633 59.9704,-118.7414 287.85795,-135.5331 227.88755,-16.7917 257.87275,69.5657 265.0692,112.7444 7.19645,43.1786 1.19941,106.7473 -62.36922,139.1313 -63.56863,32.384 -202.69998,39.5805 -253.07512,31.1846 -50.37514,-8.3958 -139.13134,-17.9911 -167.91714,-45.5775 -28.7858,-27.5864 -65.96745,-37.1817 -69.56567,-101.9497 z"
       id="path3573"
       inkscape:connector-curvature="0" />
    <path
       style="fill:#ffffff;stroke:none;stroke-width:1px;stroke-linecap:butt;stroke-linejoin:miter;stroke-opacity:1;color:#000000;fill-opacity:1;fill-rule:nonzero;marker:none;visibility:visible;display:inline;overflow:visible;enable-background:accumulate"
       d="m 892.35966,2295.196 c -49.17574,-37.1817 -124.73845,26.387 -124.73845,26.387 l 21.58935,11.9941 c 0,0 59.97041,-49.1758 103.1491,-38.3811 z"
       id="path3581"
       inkscape:connector-curvature="0" />
    <path
       style="fill:#ffffff;stroke:none;stroke-width:1px;stroke-linecap:butt;stroke-linejoin:miter;stroke-opacity:1;color:#000000;fill-opacity:1;fill-rule:nonzero;marker:none;visibility:visible;display:inline;overflow:visible;enable-background:accumulate"
       d="m 257.09349,2188.3533 49.68371,70.188 18.13849,-21.293 -52.0496,-57.57 -11.82945,7.0977 z"
       id="path3589"
       inkscape:connector-curvature="0" />
    <path
       style="fill:#ffffff;stroke:none;stroke-width:1px;stroke-linecap:butt;stroke-linejoin:miter;stroke-opacity:1;color:#000000;fill-opacity:1;fill-rule:nonzero;marker:none;visibility:visible;display:inline;overflow:visible;enable-background:accumulate"
       d="m 1568.9122,3046.2205 c -8.3485,-36.3753 16.6969,-85.2734 39.357,-92.4292 22.6601,-7.1558 101.374,-21.4675 153.2537,-17.8896 51.8796,3.578 97.7961,1.789 106.1445,46.5128 8.3485,44.7239 -24.449,89.4477 -57.8428,108.5299 -33.3938,19.0822 -103.163,30.4122 -150.2721,21.4674 -47.1091,-8.9447 -85.2734,-36.3754 -90.6403,-66.1913 z"
       id="path3064"
       inkscape:connector-curvature="0" />
    <path
       style="fill:#ffffff;stroke:none;stroke-width:1px;stroke-linecap:butt;stroke-linejoin:miter;stroke-opacity:1;color:#000000;fill-opacity:1;fill-rule:nonzero;marker:none;visibility:visible;display:inline;overflow:visible;enable-background:accumulate"
       d="m 1503.9136,2986.5888 c 25.0453,32.7974 35.779,42.9348 82.2918,29.8159 46.5128,-13.119 50.0907,4.7705 50.0907,4.7705 l -22.6601,25.0453 c 0,0 -100.7777,20.8712 -109.7224,-59.6317 z"
       id="path3072"
       inkscape:connector-curvature="0" />
  </g>
  <g
     inkscape:groupmode="layer"
     id="layer1"
     inkscape:label="txt"
     style="display:inline">
    <flowRoot
       xml:space="preserve"
       id="flowRoot2987"
       style="font-style:normal;font-variant:normal;font-weight:normal;font-stretch:normal;line-height:0.01%;font-family:Lavi;-inkscape-font-specification:Lavi;letter-spacing:0px;word-spacing:0px;fill:#000000;fill-opacity:1;stroke:none"
       transform="translate(-159.63305,-149.61037)"><flowRegion
         id="flowRegion2989"><rect
           id="rect2991"
           width="816.64679"
           height="333.42978"
           x="120.55251"
           y="265.53046"
           style="font-style:normal;font-variant:normal;font-weight:normal;font-stretch:normal;font-family:Lavi;-inkscape-font-specification:Lavi" /></flowRegion><flowPara
         id="flowPara2995"
         style="font-size:48px;line-height:1.25;text-align:center;text-anchor:middle">Tis ri pos tika a</flowPara><flowPara
         style="font-size:48px;line-height:1.25;text-align:center;text-anchor:middle"
         id="flowPara2993">arkosa, ker?</flowPara></flowRoot>
    <flowRoot
       xml:space="preserve"
       id="flowRoot2987-9"
       style="font-style:normal;font-variant:normal;font-weight:normal;font-stretch:normal;line-height:0.01%;font-family:Lavi;-inkscape-font-specification:Lavi;letter-spacing:0px;word-spacing:0px;fill:#000000;fill-opacity:1;stroke:none"
       transform="translate(-169.72842,-9.076719)"><flowRegion
         id="flowRegion2989-8"><rect
           id="rect2991-8"
           width="816.64679"
           height="333.42978"
           x="120.55251"
           y="265.53046"
           style="font-style:normal;font-variant:normal;font-weight:normal;font-stretch:normal;font-family:Lavi;-inkscape-font-specification:Lavi" /></flowRegion><flowPara
         style="font-size:48px;line-height:1.25;text-align:center;text-anchor:middle"
         id="flowPara2993-6">Ekomen?</flowPara></flowRoot>
    <flowRoot
       xml:space="preserve"
       id="flowRoot2987-9-2"
       style="font-style:normal;font-variant:normal;font-weight:normal;font-stretch:normal;line-height:0.01%;font-family:Lavi;-inkscape-font-specification:Lavi;letter-spacing:0px;word-spacing:0px;fill:#000000;fill-opacity:1;stroke:none"
       transform="translate(19.690198,57.94534)"><flowRegion
         id="flowRegion2989-8-1"><rect
           id="rect2991-8-9"
           width="816.64679"
           height="333.42978"
           x="120.55251"
           y="265.53046"
           style="font-style:normal;font-variant:normal;font-weight:normal;font-stretch:normal;font-family:Lavi;-inkscape-font-specification:Lavi" /></flowRegion><flowPara
         style="font-size:48px;line-height:1.25;text-align:center;text-anchor:middle"
         id="flowPara2993-6-2">Eksire?</flowPara></flowRoot>
    <flowRoot
       xml:space="preserve"
       id="flowRoot2987-9-2-0"
       style="font-style:normal;font-variant:normal;font-weight:normal;font-stretch:normal;line-height:0.01%;font-family:Lavi;-inkscape-font-specification:Lavi;letter-spacing:0px;word-spacing:0px;fill:#000000;fill-opacity:1;stroke:none"
       transform="translate(530.45216,29.62969)"><flowRegion
         id="flowRegion2989-8-1-0"><rect
           id="rect2991-8-9-5"
           width="816.64679"
           height="333.42978"
           x="120.55251"
           y="265.53046"
           style="font-style:normal;font-variant:normal;font-weight:normal;font-stretch:normal;font-family:Lavi;-inkscape-font-specification:Lavi" /></flowRegion><flowPara
         style="font-size:48px;line-height:1.25;text-align:center;text-anchor:middle"
         id="flowPara2993-6-2-3">Pam, Rusyoro,</flowPara><flowPara
         style="font-size:48px;line-height:1.25;text-align:center;text-anchor:middle"
         id="flowPara3085">eko tika ri vin apa.</flowPara><flowPara
         style="font-size:48px;line-height:1.25;text-align:center;text-anchor:middle"
         id="flowPara3087">Tis ri tika</flowPara><flowPara
         style="font-size:48px;line-height:1.25;text-align:center;text-anchor:middle"
         id="flowPara3089">a nemkosa!</flowPara></flowRoot>
    <flowRoot
       xml:space="preserve"
       id="flowRoot2987-9-2-0-6"
       style="font-style:normal;font-variant:normal;font-weight:normal;font-stretch:normal;line-height:0.01%;font-family:Lavi;-inkscape-font-specification:Lavi;letter-spacing:0px;word-spacing:0px;display:inline;fill:#ffffff;fill-opacity:1;stroke:none"
       transform="translate(-56.385028,1182.239)"><flowRegion
         id="flowRegion2989-8-1-0-6"><rect
           id="rect2991-8-9-5-7"
           width="816.64679"
           height="333.42978"
           x="120.55251"
           y="265.53046"
           style="font-style:normal;font-variant:normal;font-weight:normal;font-stretch:normal;font-family:Lavi;-inkscape-font-specification:Lavi;fill:#ffffff" /></flowRegion><flowPara
         style="font-size:48px;line-height:1.25;text-align:center;text-anchor:middle;fill:#ffffff"
         id="flowPara3089-3">...ves, tis ri tika</flowPara><flowPara
         style="font-size:48px;line-height:1.25;text-align:center;text-anchor:middle;fill:#ffffff"
         id="flowPara3211">a nemkosa...</flowPara></flowRoot>
    <flowRoot
       xml:space="preserve"
       id="flowRoot2987-9-2-0-6-6"
       style="font-style:normal;font-variant:normal;font-weight:normal;font-stretch:normal;line-height:0.01%;font-family:Lavi;-inkscape-font-specification:Lavi;letter-spacing:0px;word-spacing:0px;display:inline;fill:#000000;fill-opacity:1;stroke:none"
       transform="matrix(1.5197253,0,0,1.5330849,1257.5688,1015.7836)"><flowRegion
         id="flowRegion2989-8-1-0-6-9"><rect
           id="rect2991-8-9-5-7-5"
           width="816.64679"
           height="333.42978"
           x="120.55251"
           y="265.53046"
           style="font-style:normal;font-variant:normal;font-weight:normal;font-stretch:normal;font-family:Lavi;-inkscape-font-specification:Lavi" /></flowRegion><flowPara
         style="font-size:48px;line-height:1.25;text-align:center;text-anchor:middle"
         id="flowPara3211-4">Rrrrrrr!!!</flowPara></flowRoot>
    <flowRoot
       xml:space="preserve"
       id="flowRoot2987-9-2-0-6-0"
       style="font-style:normal;font-variant:normal;font-weight:normal;font-stretch:normal;line-height:0.01%;font-family:Lavi;-inkscape-font-specification:Lavi;letter-spacing:0px;word-spacing:0px;display:inline;fill:#000000;fill-opacity:1;stroke:none"
       transform="translate(1483.8732,1711.0029)"><flowRegion
         id="flowRegion2989-8-1-0-6-3"><rect
           id="rect2991-8-9-5-7-9"
           width="816.64679"
           height="333.42978"
           x="120.55251"
           y="265.53046"
           style="font-style:normal;font-variant:normal;font-weight:normal;font-stretch:normal;font-family:Lavi;-inkscape-font-specification:Lavi" /></flowRegion><flowPara
         style="font-size:48px;line-height:1.25;text-align:center;text-anchor:middle"
         id="flowPara3211-0">Por eko, kosa ri nemtempo opus!</flowPara></flowRoot>
    <flowRoot
       xml:space="preserve"
       id="flowRoot2987-9-2-0-6-0-6"
       style="font-style:normal;font-variant:normal;font-weight:normal;font-stretch:normal;line-height:0.01%;font-family:Lavi;-inkscape-font-specification:Lavi;letter-spacing:0px;word-spacing:0px;display:inline;fill:#000000;fill-opacity:1;stroke:none"
       transform="translate(-335.4565,1855.8694)"><flowRegion
         id="flowRegion2989-8-1-0-6-3-4"><rect
           id="rect2991-8-9-5-7-9-1"
           width="816.64679"
           height="333.42978"
           x="120.55251"
           y="265.53046"
           style="font-style:normal;font-variant:normal;font-weight:normal;font-stretch:normal;font-family:Lavi;-inkscape-font-specification:Lavi" /></flowRegion><flowPara
         style="font-size:48px;line-height:1.25;text-align:center;text-anchor:middle"
         id="flowPara3211-0-7">Paa...</flowPara></flowRoot>
    <flowRoot
       xml:space="preserve"
       id="flowRoot2987-9-2-0-6-0-6-3"
       style="font-style:normal;font-variant:normal;font-weight:normal;font-stretch:normal;line-height:0.01%;font-family:Lavi;-inkscape-font-specification:Lavi;letter-spacing:0px;word-spacing:0px;display:inline;fill:#000000;fill-opacity:1;stroke:none"
       transform="translate(-0.47693864,1967.3146)"><flowRegion
         id="flowRegion2989-8-1-0-6-3-4-7"><rect
           id="rect2991-8-9-5-7-9-1-9"
           width="816.64679"
           height="333.42978"
           x="120.55251"
           y="265.53046"
           style="font-style:normal;font-variant:normal;font-weight:normal;font-stretch:normal;font-family:Lavi;-inkscape-font-specification:Lavi" /></flowRegion><flowPara
         style="font-size:48px;line-height:1.25;text-align:center;text-anchor:middle"
         id="flowPara3211-0-7-6">Eko ri tene a tempo</flowPara><flowPara
         style="font-size:48px;line-height:1.25;text-align:center;text-anchor:middle"
         id="flowPara3331">sista por vake a ar</flowPara><flowPara
         style="font-size:48px;line-height:1.25;text-align:center;text-anchor:middle"
         id="flowPara3333">sorpepipe.</flowPara></flowRoot>
    <flowRoot
       xml:space="preserve"
       id="flowRoot2987-9-2-0-6-0-6-8"
       style="font-style:normal;font-variant:normal;font-weight:normal;font-stretch:normal;line-height:0.01%;font-family:Lavi;-inkscape-font-specification:Lavi;letter-spacing:0px;word-spacing:0px;display:inline;fill:#ffffff;fill-opacity:1;stroke:none"
       transform="matrix(1.4153204,-0.2891204,-0.04384836,1.6651425,1316.8803,2127.5164)"><flowRegion
         id="flowRegion2989-8-1-0-6-3-4-1"><rect
           id="rect2991-8-9-5-7-9-1-8"
           width="816.64679"
           height="333.42978"
           x="120.55251"
           y="265.53046"
           style="font-style:normal;font-variant:normal;font-weight:normal;font-stretch:normal;font-family:Lavi;-inkscape-font-specification:Lavi;fill:#ffffff" /></flowRegion><flowPara
         style="font-size:48px;line-height:1.25;text-align:center;text-anchor:middle;fill:#ffffff"
         id="flowPara3211-0-7-0">KA...RA...KAS!</flowPara></flowRoot>
    <flowRoot
       xml:space="preserve"
       id="flowRoot2987-9-2-0-6-0-6-3-9"
       style="font-style:normal;font-variant:normal;font-weight:normal;font-stretch:normal;line-height:0.01%;font-family:Lavi;-inkscape-font-specification:Lavi;letter-spacing:0px;word-spacing:0px;display:inline;fill:#000000;fill-opacity:1;stroke:none"
       transform="matrix(0.8245878,0,0,0.85157493,1279.9405,2747.5837)"><flowRegion
         id="flowRegion2989-8-1-0-6-3-4-7-5"><rect
           id="rect2991-8-9-5-7-9-1-9-4"
           width="816.64679"
           height="333.42978"
           x="120.55251"
           y="265.53046"
           style="font-style:normal;font-variant:normal;font-weight:normal;font-stretch:normal;font-family:Lavi;-inkscape-font-specification:Lavi" /></flowRegion><flowPara
         style="font-size:48px;line-height:1.25;text-align:center;text-anchor:middle"
         id="flowPara3333-2">Pona tormi,</flowPara><flowPara
         style="font-size:48px;line-height:1.25;text-align:center;text-anchor:middle"
         id="flowPara3427">Rusyoro.</flowPara></flowRoot>
    <flowRoot
       xml:space="preserve"
       id="flowRoot2987-9-2-0-6-0-6-3-3"
       style="font-style:normal;font-variant:normal;font-weight:normal;font-stretch:normal;line-height:0.01%;font-family:Lavi;-inkscape-font-specification:Lavi;letter-spacing:0px;word-spacing:0px;display:inline;fill:#000000;fill-opacity:1;stroke:none"
       transform="translate(1604.9819,3150.4042)"><flowRegion
         id="flowRegion2989-8-1-0-6-3-4-7-7"><rect
           id="rect2991-8-9-5-7-9-1-9-3"
           width="816.64679"
           height="333.42978"
           x="120.55251"
           y="265.53046"
           style="font-style:normal;font-variant:normal;font-weight:normal;font-stretch:normal;font-family:Lavi;-inkscape-font-specification:Lavi" /></flowRegion><flowPara
         style="font-size:48px;line-height:1.25;text-align:center;text-anchor:middle"
         id="flowPara3333-0">Tar parte ri veni...</flowPara></flowRoot>
    <text
       xml:space="preserve"
       style="font-style:normal;font-variant:normal;font-weight:normal;font-stretch:normal;font-size:12.0121px;line-height:0.01%;font-family:Lavi;-inkscape-font-specification:Lavi;letter-spacing:0px;word-spacing:0px;display:inline;opacity:0.4;fill:#3fd7f8;fill-opacity:1;stroke:none;stroke-width:1.00101"
       x="3051.2427"
       y="3447.9692"
       id="text25105"
       transform="matrix(1.031235,0,-0.28639181,0.96971107,0,0)"><tspan
         sodipodi:role="line"
         x="3051.2427"
         y="3447.9692"
         id="tspan25103"
         style="font-size:32.8503px;line-height:1.25;text-align:end;text-anchor:end;fill:#3fd7f8;fill-opacity:1;stroke-width:1.00101">David Revoy</tspan><tspan
         sodipodi:role="line"
         x="3051.2427"
         y="3485.8091"
         style="font-size:29.3333px;line-height:1.25;text-align:end;text-anchor:end;fill:#3fd7f8;fill-opacity:1;stroke-width:1.00101"
         id="tspan25111">11/2014</tspan></text>
  </g>
</svg>
